# xmcd CD database file
#
# Track frame offsets:
#	225
#	35850
#	74925
#	110400
#	138825
#	171000
#	200700
#	234363
#	256470
#	279162
#
# Disc length: 3981 seconds
#
# Revision: 0
# Processed by: cddbd v1.5.1PL0 Copyright (c) Steve Scherf et al.
# Submitted via: CDex 1.51
#
DISCID=980f8a0a
DTITLE=Various Artist - The Magic Reggae Mix
DYEAR=1996
DGENRE=Mix
TTITLE0=Mega Mix
TTITLE1=Happy Mix
TTITLE2=Lucky Mix
TTITLE3=Party Mix
TTITLE4=Fun Mix
TTITLE5=Classic Mix
TTITLE6=Mission Mix
TTITLE7=Saphire - I Feel Good
TTITLE8=2 Colors - You Look like the Sun
TTITLE9=Snowflake - Party People Remix
EXTD=YEAR: 1996
EXTT0=
EXTT1=
EXTT2=
EXTT3=
EXTT4=
EXTT5=
EXTT6=
EXTT7=
EXTT8=
EXTT9=
PLAYORDER=
